<svg width="1440" height="404" viewBox="0 0 1440 404" fill="none" xmlns="http://www.w3.org/2000/svg">
<path fill-rule="evenodd" clip-rule="evenodd" d="M1703.72 279.887C1768.38 234.398 1699.86 174.853 1569.41 124.407C1437.4 73.3611 1229.76 23.2681 993.938 5.41988C770.381 -11.5002 601.976 22.2599 411.392 36.7613C274.486 47.1783 165.282 63.5179 39.4297 78.0475C-144.284 99.2571 -446.538 93.6396 -494.533 141.35C-541.396 187.935 -350.419 247.474 -174.144 290.356C-20.0217 327.849 197.264 336.494 393.565 357.395C560.588 375.179 724.738 404.891 887.596 403.404C1050.19 401.919 1126.43 368.178 1249.32 349.58C1405.3 325.972 1643.84 322.008 1703.72 279.887Z" fill="#EEEEEE" fill-opacity="0.5"/>
</svg>
