<svg width="1440" height="551" viewBox="0 0 1440 551" fill="none" xmlns="http://www.w3.org/2000/svg">
<path fill-rule="evenodd" clip-rule="evenodd" d="M-117.717 206.689C-182.821 271.502 -112.951 349.523 19.5592 412.399C153.645 476.022 364.313 534.981 603.245 548.784C829.753 561.87 1000 508.408 1192.86 480.18C1331.41 459.903 1441.85 432.795 1569.17 407.41C1755.02 370.355 2061.12 364.548 2109.33 297.454C2156.4 231.941 1962.53 159.379 1783.68 108.841C1627.31 64.6548 1407.22 62.5569 1208.28 42.8383C1039.01 26.0607 872.552 -7.08612 707.657 2.18867C543.029 11.4485 466.107 60.7812 341.829 91.5733C184.077 130.659 -57.4324 146.675 -117.717 206.689Z" fill="#EEEEEE" fill-opacity="0.5"/>
</svg>
