<svg width="46" height="48" viewBox="0 0 46 48" fill="none" xmlns="http://www.w3.org/2000/svg">
<path d="M45.3333 25.2773C45.3333 22.528 44.844 19.892 43.9467 17.4533C43.3333 24.6387 39.5027 28.3293 35.5 26.6107C31.7507 25 34.2773 18.7213 34.464 15.7253C34.7787 10.6467 34.448 4.83333 25.2227 0C29.056 7.33333 25.6667 11.8893 22.112 12.1667C18.168 12.4747 14.556 8.77733 15.8893 2.77733C11.572 5.95867 11.4467 11.3133 12.7787 14.7773C14.168 18.388 12.7227 21.388 9.33467 21.7213C5.548 22.0947 3.444 17.6667 5.384 10.6107C2.02667 14.564 0 19.684 0 25.2773C0 37.796 10.148 47.944 22.6667 47.944C35.1853 47.944 45.3333 37.796 45.3333 25.2773Z" fill="#F4900C"/>
<path d="M36.5253 31.9426C36.7227 36.0546 33.1107 37.6666 31.1667 36.888C28.3587 35.764 29.112 33.8333 28.3893 29.8333C27.6667 25.8333 24.8893 23.056 20.7787 21.8333C23.7787 30.2773 19.116 33.3893 16.672 33.9453C14.176 34.5133 11.668 33.944 11.3813 28.6026C8.46933 31.5013 6.66666 35.512 6.66666 39.944C6.66666 40.4346 6.69733 40.9173 6.74 41.3973C10.8333 45.4426 16.456 47.944 22.6667 47.944C28.8773 47.944 34.5 45.4426 38.5933 41.3973C38.636 40.9173 38.6667 40.4346 38.6667 39.944C38.6667 37.028 37.888 34.296 36.5253 31.9426Z" fill="#FFCC4D"/>
</svg>
