<svg width="48" height="48" viewBox="0 0 48 48" fill="none" xmlns="http://www.w3.org/2000/svg">
<path d="M26.6667 8.056C26.6667 9.53867 25.4627 10.7413 24 10.7413C22.5373 10.7413 21.3333 9.53867 21.3333 8.056V2.68533C21.3333 1.20133 22.5373 0 24 0C25.4627 0 26.6667 1.20133 26.6667 2.68533V8.056Z" fill="#FFCC4D"/>
<path d="M12.2399 48.0001C11.9412 48.0001 11.6372 47.9307 11.3519 47.7881C10.3706 47.2894 9.97191 46.0814 10.4626 45.0854L22.3826 20.9161C22.7186 20.2334 23.4066 19.8027 24.1599 19.8027C24.9132 19.8027 25.6012 20.2334 25.9372 20.9161L37.8586 45.0854C38.3492 46.0814 37.9519 47.2894 36.9706 47.7881C35.9892 48.2841 34.7959 47.8814 34.3052 46.8867L24.1612 26.3201L14.0186 46.8867C13.6692 47.5921 12.9679 48.0001 12.2399 48.0001Z" fill="#FFAC33"/>
<path d="M24.1613 27.1894C23.8106 27.1894 23.4733 27.0481 23.2253 26.7961L4.68259 7.99741C4.16525 7.47207 4.16525 6.62274 4.68259 6.09874C5.19992 5.57474 6.03859 5.57474 6.55459 6.09874L24.1613 23.9467L41.7652 6.09741C42.2839 5.57341 43.1213 5.57341 43.6386 6.09741C44.1559 6.62274 44.1559 7.47207 43.6386 7.99607L25.0986 26.7961C24.8493 27.0467 24.5133 27.1894 24.1613 27.1894Z" fill="#58595B"/>
<path d="M45.3534 25.8466C45.3534 37.7106 35.8667 47.3279 24.1614 47.3279C12.4587 47.3279 2.9707 37.7106 2.9707 25.8466C2.9707 13.9799 12.4587 4.36261 24.1614 4.36261C35.8654 4.36128 45.3534 13.9799 45.3534 25.8466Z" fill="#DD2E44"/>
<path d="M40.0545 25.8464C40.0545 34.7451 32.9412 41.9584 24.1612 41.9584C15.3839 41.9584 8.2692 34.7451 8.2692 25.8464C8.2692 16.9464 15.3839 9.73309 24.1612 9.73309C32.9412 9.73176 40.0545 16.9464 40.0545 25.8464Z" fill="#E6E7E8"/>
<path d="M40.0533 1.67578C37.8587 1.67578 35.8733 2.57711 34.4347 4.03578L45.6733 15.4278C47.1107 13.9704 48 11.9571 48 9.73178C48 5.28378 44.4413 1.67578 40.0533 1.67578ZM7.94667 1.67578C10.14 1.67578 12.1267 2.57711 13.5653 4.03578L2.32667 15.4278C0.889333 13.9704 0 11.9571 0 9.73178C0 5.28378 3.55733 1.67578 7.94667 1.67578Z" fill="#FFCC4D"/>
<path d="M30.6667 26.6667H24C23.264 26.6667 22.6667 26.0707 22.6667 25.3333V13.3333C22.6667 12.5973 23.264 12 24 12C24.736 12 25.3333 12.5973 25.3333 13.3333V24H30.6667C31.404 24 32 24.5973 32 25.3333C32 26.0707 31.404 26.6667 30.6667 26.6667Z" fill="#414042"/>
</svg>
