<svg width="209" height="74" viewBox="0 0 209 74" fill="none" xmlns="http://www.w3.org/2000/svg">
<rect x="9.8327" y="46.061" width="27.9855" height="27.9388" rx="13.9694" fill="#12D76C"/>
<rect x="32.5236" y="4.53052" width="15.0337" height="15.0086" rx="7.50429" fill="#6FCAFD"/>
<rect y="34.7346" width="18.4547" height="5.0164" rx="2.5082" fill="#B6FD6F"/>
<path fill-rule="evenodd" clip-rule="evenodd" d="M198.167 62.6249C198.623 64.9282 200.66 66.6653 203.097 66.6653C205.867 66.6653 208.122 64.4194 208.122 61.6489C208.122 58.8785 205.867 56.6326 203.097 56.6326C202.919 56.6326 202.744 56.6418 202.571 56.6598C202.634 56.9755 202.666 57.3018 202.666 57.6358C202.666 60.2287 200.692 62.3621 198.167 62.6249Z" fill="#1E90FF"/>
<path d="M36.2995 66.4489V43.1917H51.5084V46.6138H40.5593V52.9929H50.51V56.3154H40.5593V63.0267H51.5084V66.4489H36.2995Z" fill="#111111"/>
<path d="M55.4396 66.4489V42.5272H59.6995V66.4489H55.4396Z" fill="#111111"/>
<path d="M72.0726 66.8475C70.4086 66.8475 68.9332 66.4932 67.6464 65.7844C66.3595 65.0756 65.35 64.0788 64.6179 62.7942C63.8857 61.5095 63.5196 60.0255 63.5196 58.3421C63.5196 56.6366 63.8746 55.1193 64.5846 53.7903C65.3168 52.4613 66.3152 51.4314 67.5798 50.7005C68.8666 49.9474 70.3753 49.5708 72.1059 49.5708C73.7255 49.5708 75.1565 49.9252 76.399 50.634C77.6415 51.3428 78.6066 52.3174 79.2944 53.5578C80.0043 54.776 80.3593 56.1382 80.3593 57.6444C80.3593 57.888 80.3482 58.1427 80.326 58.4085C80.326 58.6743 80.3149 58.9512 80.2928 59.2391H67.7462C67.8349 60.5238 68.2787 61.5316 69.0774 62.2626C69.8983 62.9935 70.8856 63.359 72.0393 63.359C72.9046 63.359 73.6257 63.1707 74.2025 62.7942C74.8016 62.3955 75.2453 61.886 75.5337 61.2658H79.8601C79.5495 62.3069 79.0281 63.2593 78.296 64.1231C77.586 64.9648 76.6985 65.6293 75.6336 66.1166C74.5908 66.6039 73.4038 66.8475 72.0726 66.8475ZM72.1059 53.0262C71.0631 53.0262 70.1424 53.3252 69.3436 53.9232C68.5449 54.4991 68.0346 55.3851 67.8128 56.5812H76.0329C75.9664 55.4958 75.567 54.632 74.8348 53.9897C74.1027 53.3473 73.193 53.0262 72.1059 53.0262Z" fill="#111111"/>
<path d="M83.9421 66.4489V49.9695H87.7028L88.0688 52.1956C88.6013 51.3982 89.3002 50.7669 90.1655 50.3018C91.0529 49.8145 92.0735 49.5708 93.2272 49.5708C95.7787 49.5708 97.5869 50.5565 98.6519 52.5278C99.2509 51.6197 100.05 50.8998 101.048 50.3682C102.069 49.8366 103.178 49.5708 104.376 49.5708C106.528 49.5708 108.181 50.2132 109.335 51.4978C110.488 52.7825 111.065 54.6652 111.065 57.146V66.4489H106.805V57.5447C106.805 56.1271 106.528 55.0418 105.973 54.2887C105.441 53.5356 104.609 53.1591 103.477 53.1591C102.324 53.1591 101.392 53.5799 100.682 54.4216C99.9942 55.2633 99.6503 56.4372 99.6503 57.9434V66.4489H95.3904V57.5447C95.3904 56.1271 95.1131 55.0418 94.5584 54.2887C94.0038 53.5356 93.1496 53.1591 91.9959 53.1591C90.8644 53.1591 89.9436 53.5799 89.2336 54.4216C88.5459 55.2633 88.202 56.4372 88.202 57.9434V66.4489H83.9421Z" fill="#111111"/>
<path d="M123.13 66.8475C121.466 66.8475 119.991 66.4932 118.704 65.7844C117.417 65.0756 116.408 64.0788 115.675 62.7942C114.943 61.5095 114.577 60.0255 114.577 58.3421C114.577 56.6366 114.932 55.1193 115.642 53.7903C116.374 52.4613 117.373 51.4314 118.637 50.7005C119.924 49.9474 121.433 49.5708 123.163 49.5708C124.783 49.5708 126.214 49.9252 127.456 50.634C128.699 51.3428 129.664 52.3174 130.352 53.5578C131.062 54.776 131.417 56.1382 131.417 57.6444C131.417 57.888 131.406 58.1427 131.384 58.4085C131.384 58.6743 131.372 58.9512 131.35 59.2391H118.804C118.892 60.5238 119.336 61.5316 120.135 62.2626C120.956 62.9935 121.943 63.359 123.097 63.359C123.962 63.359 124.683 63.1707 125.26 62.7942C125.859 62.3955 126.303 61.886 126.591 61.2658H130.918C130.607 62.3069 130.086 63.2593 129.353 64.1231C128.643 64.9648 127.756 65.6293 126.691 66.1166C125.648 66.6039 124.461 66.8475 123.13 66.8475ZM123.163 53.0262C122.121 53.0262 121.2 53.3252 120.401 53.9232C119.602 54.4991 119.092 55.3851 118.87 56.5812H127.09C127.024 55.4958 126.625 54.632 125.892 53.9897C125.16 53.3473 124.251 53.0262 123.163 53.0262Z" fill="#111111"/>
<path d="M135 66.4489V49.9695H138.76L139.093 52.7604C139.603 51.7858 140.336 51.0105 141.29 50.4347C142.266 49.8588 143.408 49.5708 144.717 49.5708C146.759 49.5708 148.345 50.2132 149.476 51.4978C150.608 52.7825 151.174 54.6652 151.174 57.146V66.4489H146.914V57.5447C146.914 56.1271 146.625 55.0418 146.049 54.2887C145.472 53.5356 144.573 53.1591 143.353 53.1591C142.155 53.1591 141.168 53.5799 140.391 54.4216C139.637 55.2633 139.259 56.4372 139.259 57.9434V66.4489H135Z" fill="#111111"/>
<path d="M162.602 66.4489C160.871 66.4489 159.485 66.028 158.442 65.1863C157.399 64.3446 156.878 62.8495 156.878 60.701V53.5245H154.049V49.9695H156.878L157.377 45.5507H161.138V49.9695H165.597V53.5245H161.138V60.7342C161.138 61.5316 161.304 62.0854 161.637 62.3955C161.992 62.6834 162.591 62.8274 163.434 62.8274H165.497V66.4489H162.602Z" fill="#111111"/>
<path d="M174.945 66.8475C173.526 66.8475 172.361 66.6261 171.451 66.1831C170.541 65.7179 169.865 65.1088 169.421 64.3557C168.977 63.6026 168.755 62.772 168.755 61.8639C168.755 60.3356 169.354 59.0952 170.553 58.1427C171.751 57.1903 173.548 56.7141 175.944 56.7141H180.137V56.3154C180.137 55.1858 179.815 54.3551 179.172 53.8236C178.529 53.292 177.73 53.0262 176.776 53.0262C175.911 53.0262 175.156 53.2366 174.513 53.6574C173.869 54.0561 173.47 54.6542 173.315 55.4515H169.155C169.266 54.2555 169.665 53.2144 170.353 52.3284C171.063 51.4425 171.972 50.7669 173.082 50.3018C174.191 49.8145 175.434 49.5708 176.809 49.5708C179.161 49.5708 181.014 50.1578 182.367 51.3317C183.72 52.5056 184.397 54.1669 184.397 56.3154V66.4489H180.77L180.37 63.7909C179.882 64.6769 179.194 65.4078 178.307 65.9837C177.441 66.5596 176.321 66.8475 174.945 66.8475ZM175.911 63.5251C177.131 63.5251 178.074 63.1264 178.739 62.329C179.427 61.5316 179.86 60.546 180.037 59.372H176.41C175.278 59.372 174.468 59.5825 173.98 60.0033C173.492 60.402 173.248 60.9004 173.248 61.4984C173.248 62.1407 173.492 62.6391 173.98 62.9935C174.468 63.3479 175.112 63.5251 175.911 63.5251Z" fill="#111111"/>
<path d="M188.462 66.4489V42.5272H192.722V66.4489H188.462Z" fill="#111111"/>
<path d="M11.527 33.2244L5.37024 9.96722H9.9296L14.1229 28.4733L19.0483 9.96722H23.7408L28.5331 28.4733L32.7264 9.96722H37.319L30.9958 33.2244H25.9373L21.3114 15.9809L16.5523 33.2244H11.527Z" fill="#111111"/>
<path d="M46.5719 33.6231C44.9079 33.6231 43.4325 33.2687 42.1457 32.5599C40.8589 31.8511 39.8494 30.8544 39.1172 29.5697C38.385 28.285 38.019 26.801 38.019 25.1176C38.019 23.4121 38.3739 21.8948 39.0839 20.5658C39.8161 19.2369 40.8145 18.2069 42.0791 17.476C43.3659 16.7229 44.8746 16.3463 46.6052 16.3463C48.2248 16.3463 49.6559 16.7007 50.8983 17.4095C52.1408 18.1183 53.1059 19.0929 53.7937 20.3333C54.5037 21.5515 54.8586 22.9137 54.8586 24.4199C54.8586 24.6635 54.8475 24.9182 54.8254 25.184C54.8254 25.4498 54.8143 25.7267 54.7921 26.0147H42.2455C42.3343 27.2993 42.778 28.3071 43.5767 29.0381C44.3976 29.769 45.3849 30.1345 46.5386 30.1345C47.4039 30.1345 48.125 29.9462 48.7018 29.5697C49.3009 29.171 49.7446 28.6615 50.033 28.0413H54.3594C54.0488 29.0824 53.5274 30.0348 52.7953 30.8987C52.0853 31.7403 51.1978 32.4048 50.1329 32.8921C49.0901 33.3794 47.9031 33.6231 46.5719 33.6231ZM46.6052 19.8017C45.5624 19.8017 44.6417 20.1007 43.843 20.6987C43.0442 21.2746 42.5339 22.1606 42.3121 23.3567H50.5322C50.4657 22.2714 50.0663 21.4075 49.3342 20.7652C48.602 20.1228 47.6923 19.8017 46.6052 19.8017Z" fill="#111111"/>
<path d="M72.0623 33.6231C70.6424 33.6231 69.4776 33.4016 68.5679 32.9586C67.6583 32.4934 66.9816 31.8843 66.5378 31.1312C66.0941 30.3781 65.8722 29.5475 65.8722 28.6394C65.8722 27.1111 66.4713 25.8707 67.6694 24.9182C68.8674 23.9658 70.6646 23.4896 73.0607 23.4896H77.254V23.0909C77.254 21.9613 76.9323 21.1307 76.2889 20.5991C75.6455 20.0675 74.8467 19.8017 73.8927 19.8017C73.0274 19.8017 72.2731 20.0121 71.6297 20.4329C70.9863 20.8316 70.5869 21.4297 70.4316 22.2271H66.2716C66.3825 21.031 66.7819 19.9899 67.4697 19.104C68.1796 18.218 69.0893 17.5424 70.1986 17.0773C71.308 16.59 72.5504 16.3463 73.926 16.3463C76.2778 16.3463 78.1304 16.9333 79.4838 18.1072C80.8371 19.2812 81.5138 20.9424 81.5138 23.0909V33.2244H77.8863L77.487 30.5664C76.9989 31.4524 76.3111 32.1833 75.4236 32.7592C74.5583 33.3351 73.4379 33.6231 72.0623 33.6231ZM73.0274 30.3006C74.2477 30.3006 75.1906 29.9019 75.8562 29.1045C76.544 28.3071 76.9767 27.3215 77.1542 26.1476H73.5266C72.3951 26.1476 71.5853 26.358 71.0972 26.7788C70.6091 27.1775 70.365 27.6759 70.365 28.2739C70.365 28.9163 70.6091 29.4146 71.0972 29.769C71.5853 30.1234 72.2287 30.3006 73.0274 30.3006Z" fill="#111111"/>
<path d="M85.5789 33.2244V16.745H89.3729L89.7722 19.8349C90.3713 18.7717 91.1811 17.93 92.2017 17.3098C93.2444 16.6675 94.4647 16.3463 95.8625 16.3463V20.8316H94.6644C93.7325 20.8316 92.9005 20.9756 92.1684 21.2636C91.4362 21.5515 90.8594 22.0499 90.4378 22.7587C90.0385 23.4674 89.8388 24.4531 89.8388 25.7156V33.2244H85.5789Z" fill="#111111"/>
<path d="M106.502 33.6231C104.838 33.6231 103.363 33.2687 102.076 32.5599C100.789 31.8511 99.7794 30.8544 99.0472 29.5697C98.315 28.285 97.949 26.801 97.949 25.1176C97.949 23.4121 98.3039 21.8948 99.0139 20.5658C99.7461 19.2369 100.744 18.2069 102.009 17.476C103.296 16.7229 104.805 16.3463 106.535 16.3463C108.155 16.3463 109.586 16.7007 110.828 17.4095C112.071 18.1183 113.036 19.0929 113.724 20.3333C114.434 21.5515 114.789 22.9137 114.789 24.4199C114.789 24.6635 114.778 24.9182 114.755 25.184C114.755 25.4498 114.744 25.7267 114.722 26.0147H102.176C102.264 27.2993 102.708 28.3071 103.507 29.0381C104.328 29.769 105.315 30.1345 106.469 30.1345C107.334 30.1345 108.055 29.9462 108.632 29.5697C109.231 29.171 109.675 28.6615 109.963 28.0413H114.289C113.979 29.0824 113.457 30.0348 112.725 30.8987C112.015 31.7403 111.128 32.4048 110.063 32.8921C109.02 33.3794 107.833 33.6231 106.502 33.6231ZM106.535 19.8017C105.492 19.8017 104.572 20.1007 103.773 20.6987C102.974 21.2746 102.464 22.1606 102.242 23.3567H110.462C110.396 22.2714 109.996 21.4075 109.264 20.7652C108.532 20.1228 107.622 19.8017 106.535 19.8017Z" fill="#111111"/>
<path d="M131.992 33.6231C130.572 33.6231 129.408 33.4016 128.498 32.9586C127.588 32.4934 126.912 31.8843 126.468 31.1312C126.024 30.3781 125.802 29.5475 125.802 28.6394C125.802 27.1111 126.401 25.8707 127.599 24.9182C128.797 23.9658 130.595 23.4896 132.991 23.4896H137.184V23.0909C137.184 21.9613 136.862 21.1307 136.219 20.5991C135.575 20.0675 134.777 19.8017 133.823 19.8017C132.957 19.8017 132.203 20.0121 131.56 20.4329C130.916 20.8316 130.517 21.4297 130.362 22.2271H126.202C126.313 21.031 126.712 19.9899 127.4 19.104C128.11 18.218 129.019 17.5424 130.129 17.0773C131.238 16.59 132.48 16.3463 133.856 16.3463C136.208 16.3463 138.06 16.9333 139.414 18.1072C140.767 19.2812 141.444 20.9424 141.444 23.0909V33.2244H137.816L137.417 30.5664C136.929 31.4524 136.241 32.1833 135.354 32.7592C134.488 33.3351 133.368 33.6231 131.992 33.6231ZM132.957 30.3006C134.178 30.3006 135.121 29.9019 135.786 29.1045C136.474 28.3071 136.907 27.3215 137.084 26.1476H133.457C132.325 26.1476 131.515 26.358 131.027 26.7788C130.539 27.1775 130.295 27.6759 130.295 28.2739C130.295 28.9163 130.539 29.4146 131.027 29.769C131.515 30.1234 132.159 30.3006 132.957 30.3006Z" fill="#111111"/>
<path d="M145.509 33.2244V9.30273H149.769V33.2244H145.509Z" fill="#111111"/>
<path d="M154.121 33.2244V9.30273H158.381V33.2244H154.121Z" fill="#111111"/>
</svg>
