<svg width="48" height="48" viewBox="0 0 48 48" fill="none" xmlns="http://www.w3.org/2000/svg">
<path d="M30 14H27C25.6739 14 24.4021 14.5268 23.4645 15.4645C22.5268 16.4021 22 17.6739 22 19V22H19V26H22V34H26V26H29L30 22H26V19C26 18.7348 26.1054 18.4804 26.2929 18.2929C26.4804 18.1054 26.7348 18 27 18H30V14Z" stroke="#FEFEFE" stroke-width="2" stroke-linecap="round" stroke-linejoin="round"/>
<path d="M24 47C11.2975 47 1 36.7025 1 24H-1C-1 37.8071 10.1929 49 24 49V47ZM47 24C47 36.7025 36.7025 47 24 47V49C37.8071 49 49 37.8071 49 24H47ZM24 1C36.7025 1 47 11.2975 47 24H49C49 10.1929 37.8071 -1 24 -1V1ZM24 -1C10.1929 -1 -1 10.1929 -1 24H1C1 11.2975 11.2975 1 24 1V-1Z" fill="#FEFEFE"/>
</svg>
