<svg width="1440" height="742" viewBox="0 0 1440 742" fill="none" xmlns="http://www.w3.org/2000/svg">
<path fill-rule="evenodd" clip-rule="evenodd" d="M1597.3 370.152C1653.35 461.868 1576.74 556.435 1440.93 624.502C1303.51 693.378 1092.18 747.972 858.416 740.492C636.808 733.401 477.306 645.294 293.008 587.771C160.618 546.449 56.3001 499.198 -64.6092 452.396C-241.108 384.078 -537.968 343.776 -577.334 250.881C-615.773 160.177 -419.253 85.9988 -239.79 39.018C-82.8817 -2.05838 131.263 18.7157 326.82 14.1864C493.209 10.3326 658.692 -15.2286 817.922 14.5203C976.896 44.2212 1046.15 116.956 1163.51 170.504C1312.47 238.475 1545.41 285.226 1597.3 370.152Z" fill="#EEEEEE" fill-opacity="0.5"/>
</svg>
